# xmcd CD database file
#
# Track frame offsets:
#	150
#	16312
#	33987
#	53375
#	77430
#	95182
#	115022
#	134425
#	150782
#	173060
#	189502
#
# Disc length: 2800 seconds
#
# Revision: 0
# Processed by: cddbd v1.5PL3 Copyright (c) Steve Scherf et al.
# Submitted via: CDex 1.51
#
DISCID=760aee0b
DTITLE=Grass Nation. - BORN
DYEAR=2002
DGENRE=JPop
TTITLE0=Missing
TTITLE1=東京GAME
TTITLE2=恢復
TTITLE3=唄うよ
TTITLE4=チューニング
TTITLE5=BASEBALL MAN
TTITLE6=ラララ
TTITLE7=Beautiful
TTITLE8=Call my Name
TTITLE9=流れ星
TTITLE10=YOU
EXTD=YEAR: 2002
EXTT0=
EXTT1=
EXTT2=
EXTT3=
EXTT4=
EXTT5=
EXTT6=
EXTT7=
EXTT8=
EXTT9=
EXTT10=
PLAYORDER=
